<svg width="169" height="169" viewBox="0 0 169 169" fill="none" xmlns="http://www.w3.org/2000/svg">
<path fill-rule="evenodd" clip-rule="evenodd" d="M84.4987 168.125C99.6058 168.126 114.431 164.035 127.399 156.286C140.368 148.538 150.995 137.42 158.152 124.116C165.308 110.812 168.728 95.8172 168.046 80.7256C167.364 65.6339 162.606 51.0088 154.279 38.404L87.7973 112.273C84.6919 115.724 80.4073 117.888 75.7866 118.338C71.166 118.789 66.5441 117.493 62.8306 114.707L32.4654 91.9333C30.4939 90.4548 29.1906 88.2536 28.8421 85.814C28.4936 83.3745 29.1285 80.8964 30.6071 78.925C32.0856 76.9536 34.2868 75.6502 36.7263 75.3017C39.1659 74.9532 41.6439 75.5881 43.6154 77.0667L73.9806 99.8405L142.237 24.0113C132.349 14.5719 120.297 7.70067 107.138 3.99906C93.9783 0.297463 80.1119 -0.121587 66.7528 2.77861C53.3937 5.6788 40.9493 11.8098 30.5092 20.6348C20.0691 29.4598 11.9516 40.7096 6.86757 53.3993C1.7835 66.089 -0.112123 79.8316 1.34667 93.4238C2.80546 107.016 7.57418 120.043 15.2353 131.365C22.8964 142.687 33.2163 151.958 45.2914 158.367C57.3664 164.775 70.8284 168.126 84.4987 168.125Z" fill="#FC8D4E"/>
</svg>
